{
    "asset" : {
        "generator" : "Khronos glTF Blender I/O v1.3.48",
        "version" : "2.0"
    },
    "extensionsUsed" : [
        "KHR_materials_clearcoat"
    ],
    "scene" : 0,
    "scenes" : [
        {
            "name" : "Scene",
            "nodes" : [
                0,
                1,
                2,
                3,
                4,
                5,
                6
            ]
        }
    ],
    "nodes" : [
        {
            "mesh" : 0,
            "name" : "E_wood_tip.004",
            "translation" : [
                -0.12662413716316223,
                2.171513557434082,
                -0.8077219724655151
            ]
        },
        {
            "mesh" : 1,
            "name" : "E_wood_tip.001",
            "translation" : [
                0.1426444947719574,
                2.171513557434082,
                0.8075841665267944
            ]
        },
        {
            "mesh" : 2,
            "name" : "E_wood_tip.002",
            "translation" : [
                -0.12662413716316223,
                2.171513557434082,
                0.8075841665267944
            ]
        },
        {
            "mesh" : 3,
            "name" : "E_wood_tip.003",
            "translation" : [
                0.1426444947719574,
                2.171513557434082,
                -0.8077219724655151
            ]
        },
        {
            "mesh" : 4,
            "name" : "2_Top_Panel",
            "translation" : [
                0,
                2.183023452758789,
                0
            ]
        },
        {
            "mesh" : 5,
            "name" : "1_Sidepanel_L",
            "scale" : [
                1,
                1,
                -1
            ],
            "translation" : [
                0,
                1.086537480354309,
                0.8076481819152832
            ]
        },
        {
            "mesh" : 6,
            "name" : "1_Sidepanel_R",
            "translation" : [
                0,
                1.086537480354309,
                -0.8074098229408264
            ]
        }
    ],
    "materials" : [
        {
            "doubleSided" : true,
            "emissiveFactor" : [
                0,
                0,
                0
            ],
            "extensions" : {
                "KHR_materials_clearcoat" : {
                    "clearcoatFactor" : 0.08181817829608917,
                    "clearcoatRoughnessFactor" : 0.029999999329447746
                }
            },
            "name" : "Material.006",
            "pbrMetallicRoughness" : {
                "baseColorFactor" : [
                    0.30430492758750916,
                    0.16025838255882263,
                    0.0877777561545372,
                    1
                ],
                "metallicFactor" : 0,
                "roughnessFactor" : 0.8045454621315002
            }
        },
        {
            "doubleSided" : true,
            "emissiveFactor" : [
                0,
                0,
                0
            ],
            "extensions" : {
                "KHR_materials_clearcoat" : {
                    "clearcoatFactor" : 0.08181817829608917,
                    "clearcoatRoughnessFactor" : 0.029999999329447746
                }
            },
            "name" : "Material.004",
            "pbrMetallicRoughness" : {
                "baseColorFactor" : [
                    0.30430492758750916,
                    0.16025838255882263,
                    0.0877777561545372,
                    1
                ],
                "metallicFactor" : 0,
                "roughnessFactor" : 0.8045454621315002
            }
        },
        {
            "doubleSided" : true,
            "emissiveFactor" : [
                0,
                0,
                0
            ],
            "extensions" : {
                "KHR_materials_clearcoat" : {
                    "clearcoatFactor" : 0.08181817829608917,
                    "clearcoatRoughnessFactor" : 0.029999999329447746
                }
            },
            "name" : "Material.005",
            "pbrMetallicRoughness" : {
                "baseColorFactor" : [
                    0.30430492758750916,
                    0.16025838255882263,
                    0.0877777561545372,
                    1
                ],
                "metallicFactor" : 0,
                "roughnessFactor" : 0.8045454621315002
            }
        },
        {
            "doubleSided" : true,
            "emissiveFactor" : [
                0,
                0,
                0
            ],
            "extensions" : {
                "KHR_materials_clearcoat" : {
                    "clearcoatFactor" : 0.08181817829608917,
                    "clearcoatRoughnessFactor" : 0.029999999329447746
                }
            },
            "name" : "Material.007",
            "pbrMetallicRoughness" : {
                "baseColorFactor" : [
                    0.30430492758750916,
                    0.16025838255882263,
                    0.0877777561545372,
                    1
                ],
                "metallicFactor" : 0,
                "roughnessFactor" : 0.8045454621315002
            }
        },
        {
            "doubleSided" : true,
            "emissiveFactor" : [
                0,
                0,
                0
            ],
            "name" : "Material.001",
            "pbrMetallicRoughness" : {
                "baseColorFactor" : [
                    1,
                    1,
                    1,
                    1
                ],
                "metallicFactor" : 0,
                "roughnessFactor" : 0.2222222238779068
            }
        },
        {
            "doubleSided" : true,
            "emissiveFactor" : [
                0,
                0,
                0
            ],
            "name" : "Material.003",
            "pbrMetallicRoughness" : {
                "baseColorFactor" : [
                    1,
                    1,
                    1,
                    1
                ],
                "metallicFactor" : 0,
                "roughnessFactor" : 0.2222222238779068
            }
        },
        {
            "doubleSided" : true,
            "emissiveFactor" : [
                0,
                0,
                0
            ],
            "name" : "Material.002",
            "pbrMetallicRoughness" : {
                "baseColorFactor" : [
                    1,
                    1,
                    1,
                    1
                ],
                "metallicFactor" : 0,
                "roughnessFactor" : 0.2222222238779068
            }
        }
    ],
    "meshes" : [
        {
            "name" : "Cylinder",
            "primitives" : [
                {
                    "attributes" : {
                        "POSITION" : 0,
                        "NORMAL" : 1,
                        "TEXCOORD_0" : 2
                    },
                    "indices" : 3,
                    "material" : 0
                }
            ]
        },
        {
            "name" : "Cylinder.001",
            "primitives" : [
                {
                    "attributes" : {
                        "POSITION" : 4,
                        "NORMAL" : 5,
                        "TEXCOORD_0" : 6
                    },
                    "indices" : 3,
                    "material" : 1
                }
            ]
        },
        {
            "name" : "Cylinder.002",
            "primitives" : [
                {
                    "attributes" : {
                        "POSITION" : 7,
                        "NORMAL" : 8,
                        "TEXCOORD_0" : 9
                    },
                    "indices" : 3,
                    "material" : 2
                }
            ]
        },
        {
            "name" : "Cylinder.003",
            "primitives" : [
                {
                    "attributes" : {
                        "POSITION" : 10,
                        "NORMAL" : 11,
                        "TEXCOORD_0" : 12
                    },
                    "indices" : 3,
                    "material" : 3
                }
            ]
        },
        {
            "name" : "Cube.003",
            "primitives" : [
                {
                    "attributes" : {
                        "POSITION" : 13,
                        "NORMAL" : 14,
                        "TEXCOORD_0" : 15
                    },
                    "indices" : 16,
                    "material" : 4
                }
            ]
        },
        {
            "name" : "Cube.005",
            "primitives" : [
                {
                    "attributes" : {
                        "POSITION" : 17,
                        "NORMAL" : 18,
                        "TEXCOORD_0" : 19
                    },
                    "indices" : 20,
                    "material" : 5
                }
            ]
        },
        {
            "name" : "Cube.029",
            "primitives" : [
                {
                    "attributes" : {
                        "POSITION" : 21,
                        "NORMAL" : 22,
                        "TEXCOORD_0" : 23
                    },
                    "indices" : 20,
                    "material" : 6
                }
            ]
        }
    ],
    "accessors" : [
        {
            "bufferView" : 0,
            "componentType" : 5126,
            "count" : 192,
            "max" : [
                0.00436008907854557,
                0.014533630572259426,
                0.00436008907854557
            ],
            "min" : [
                -0.00436008907854557,
                -0.014533630572259426,
                -0.00436008907854557
            ],
            "type" : "VEC3"
        },
        {
            "bufferView" : 1,
            "componentType" : 5126,
            "count" : 192,
            "type" : "VEC3"
        },
        {
            "bufferView" : 2,
            "componentType" : 5126,
            "count" : 192,
            "type" : "VEC2"
        },
        {
            "bufferView" : 3,
            "componentType" : 5123,
            "count" : 372,
            "type" : "SCALAR"
        },
        {
            "bufferView" : 4,
            "componentType" : 5126,
            "count" : 192,
            "max" : [
                0.00436008907854557,
                0.014533630572259426,
                0.00436008907854557
            ],
            "min" : [
                -0.00436008907854557,
                -0.014533630572259426,
                -0.00436008907854557
            ],
            "type" : "VEC3"
        },
        {
            "bufferView" : 5,
            "componentType" : 5126,
            "count" : 192,
            "type" : "VEC3"
        },
        {
            "bufferView" : 6,
            "componentType" : 5126,
            "count" : 192,
            "type" : "VEC2"
        },
        {
            "bufferView" : 7,
            "componentType" : 5126,
            "count" : 192,
            "max" : [
                0.00436008907854557,
                0.014533630572259426,
                0.00436008907854557
            ],
            "min" : [
                -0.00436008907854557,
                -0.014533630572259426,
                -0.00436008907854557
            ],
            "type" : "VEC3"
        },
        {
            "bufferView" : 8,
            "componentType" : 5126,
            "count" : 192,
            "type" : "VEC3"
        },
        {
            "bufferView" : 9,
            "componentType" : 5126,
            "count" : 192,
            "type" : "VEC2"
        },
        {
            "bufferView" : 10,
            "componentType" : 5126,
            "count" : 192,
            "max" : [
                0.00436008907854557,
                0.014533630572259426,
                0.00436008907854557
            ],
            "min" : [
                -0.00436008907854557,
                -0.014533630572259426,
                -0.00436008907854557
            ],
            "type" : "VEC3"
        },
        {
            "bufferView" : 11,
            "componentType" : 5126,
            "count" : 192,
            "type" : "VEC3"
        },
        {
            "bufferView" : 12,
            "componentType" : 5126,
            "count" : 192,
            "type" : "VEC2"
        },
        {
            "bufferView" : 13,
            "componentType" : 5126,
            "count" : 24,
            "max" : [
                0.19999563694000244,
                0.008823752403259277,
                0.8148520588874817
            ],
            "min" : [
                -0.199995756149292,
                -0.008823752403259277,
                -0.8148520588874817
            ],
            "type" : "VEC3"
        },
        {
            "bufferView" : 14,
            "componentType" : 5126,
            "count" : 24,
            "type" : "VEC3"
        },
        {
            "bufferView" : 15,
            "componentType" : 5126,
            "count" : 24,
            "type" : "VEC2"
        },
        {
            "bufferView" : 16,
            "componentType" : 5123,
            "count" : 36,
            "type" : "SCALAR"
        },
        {
            "bufferView" : 17,
            "componentType" : 5126,
            "count" : 1150,
            "max" : [
                0.20000000298023224,
                1.0870000123977661,
                0.007000000216066837
            ],
            "min" : [
                -0.20000000298023224,
                -1.0870000123977661,
                -0.007000000216066837
            ],
            "type" : "VEC3"
        },
        {
            "bufferView" : 18,
            "componentType" : 5126,
            "count" : 1150,
            "type" : "VEC3"
        },
        {
            "bufferView" : 19,
            "componentType" : 5126,
            "count" : 1150,
            "type" : "VEC2"
        },
        {
            "bufferView" : 20,
            "componentType" : 5123,
            "count" : 2268,
            "type" : "SCALAR"
        },
        {
            "bufferView" : 21,
            "componentType" : 5126,
            "count" : 1150,
            "max" : [
                0.20000000298023224,
                1.0870000123977661,
                0.007000000216066837
            ],
            "min" : [
                -0.20000000298023224,
                -1.0870000123977661,
                -0.007000000216066837
            ],
            "type" : "VEC3"
        },
        {
            "bufferView" : 22,
            "componentType" : 5126,
            "count" : 1150,
            "type" : "VEC3"
        },
        {
            "bufferView" : 23,
            "componentType" : 5126,
            "count" : 1150,
            "type" : "VEC2"
        }
    ],
    "bufferViews" : [
        {
            "buffer" : 0,
            "byteLength" : 2304,
            "byteOffset" : 0
        },
        {
            "buffer" : 0,
            "byteLength" : 2304,
            "byteOffset" : 2304
        },
        {
            "buffer" : 0,
            "byteLength" : 1536,
            "byteOffset" : 4608
        },
        {
            "buffer" : 0,
            "byteLength" : 744,
            "byteOffset" : 6144
        },
        {
            "buffer" : 0,
            "byteLength" : 2304,
            "byteOffset" : 6888
        },
        {
            "buffer" : 0,
            "byteLength" : 2304,
            "byteOffset" : 9192
        },
        {
            "buffer" : 0,
            "byteLength" : 1536,
            "byteOffset" : 11496
        },
        {
            "buffer" : 0,
            "byteLength" : 2304,
            "byteOffset" : 13032
        },
        {
            "buffer" : 0,
            "byteLength" : 2304,
            "byteOffset" : 15336
        },
        {
            "buffer" : 0,
            "byteLength" : 1536,
            "byteOffset" : 17640
        },
        {
            "buffer" : 0,
            "byteLength" : 2304,
            "byteOffset" : 19176
        },
        {
            "buffer" : 0,
            "byteLength" : 2304,
            "byteOffset" : 21480
        },
        {
            "buffer" : 0,
            "byteLength" : 1536,
            "byteOffset" : 23784
        },
        {
            "buffer" : 0,
            "byteLength" : 288,
            "byteOffset" : 25320
        },
        {
            "buffer" : 0,
            "byteLength" : 288,
            "byteOffset" : 25608
        },
        {
            "buffer" : 0,
            "byteLength" : 192,
            "byteOffset" : 25896
        },
        {
            "buffer" : 0,
            "byteLength" : 72,
            "byteOffset" : 26088
        },
        {
            "buffer" : 0,
            "byteLength" : 13800,
            "byteOffset" : 26160
        },
        {
            "buffer" : 0,
            "byteLength" : 13800,
            "byteOffset" : 39960
        },
        {
            "buffer" : 0,
            "byteLength" : 9200,
            "byteOffset" : 53760
        },
        {
            "buffer" : 0,
            "byteLength" : 4536,
            "byteOffset" : 62960
        },
        {
            "buffer" : 0,
            "byteLength" : 13800,
            "byteOffset" : 67496
        },
        {
            "buffer" : 0,
            "byteLength" : 13800,
            "byteOffset" : 81296
        },
        {
            "buffer" : 0,
            "byteLength" : 9200,
            "byteOffset" : 95096
        }
    ],
    "buffers" : [
        {
            "byteLength" : 104296,
            "uri" : "data:application/octet-stream;base64,"
        }
    ]
}
